<?xml version="1.0" standalone="no"?>
<!DOCTYPE svg PUBLIC "-//W3C//DTD SVG 20010904//EN"
 "http://www.w3.org/TR/2001/REC-SVG-20010904/DTD/svg10.dtd">
<svg version="1.0" xmlns="http://www.w3.org/2000/svg"
 width="260.000000pt" height="260.000000pt" viewBox="0 0 260.000000 260.000000"
 preserveAspectRatio="xMidYMid meet">
<metadata>
Created by potrace 1.11, written by Peter Selinger 2001-2013
</metadata>
<g transform="translate(0.000000,260.000000) scale(0.100000,-0.100000)"
fill="#000000" stroke="none">
<path d="M1270 2332 c-24 -16 -32 -31 -33 -59 0 -7 -6 -13 -13 -13 -8 0 -11
-6 -8 -15 4 -8 1 -15 -5 -15 -6 0 -11 -7 -11 -15 0 -8 -5 -15 -11 -15 -5 0 -7
-4 -4 -10 3 -5 1 -10 -5 -10 -6 0 -9 -4 -6 -9 3 -5 -1 -14 -9 -21 -8 -7 -13
-16 -10 -20 3 -4 -2 -13 -10 -20 -8 -7 -12 -16 -9 -21 3 -5 0 -9 -6 -9 -6 0
-8 -4 -5 -10 3 -5 2 -10 -4 -10 -10 0 -27 -38 -23 -52 1 -5 -2 -8 -7 -8 -10 0
-27 -39 -23 -53 1 -5 -2 -6 -8 -2 -5 3 -10 -1 -10 -9 0 -9 -4 -16 -8 -16 -4 0
-9 -10 -9 -22 -1 -13 -10 -28 -19 -35 -10 -7 -14 -13 -10 -13 4 0 -2 -13 -14
-30 -12 -16 -18 -30 -14 -30 4 0 0 -8 -8 -17 -9 -10 -19 -28 -22 -40 -4 -13
-12 -23 -17 -23 -5 0 -8 -3 -7 -7 2 -12 -14 -47 -26 -55 -5 -3 -11 -17 -13
-29 -2 -13 -8 -26 -15 -30 -6 -4 -7 -12 -3 -19 5 -9 4 -11 -3 -6 -7 4 -12 1
-12 -9 0 -9 -4 -14 -9 -11 -5 4 -7 -4 -3 -16 3 -12 1 -19 -5 -15 -8 5 -39 -53
-35 -67 1 -3 -7 -15 -18 -26 -12 -12 -18 -25 -15 -30 4 -6 1 -10 -4 -10 -6 0
-11 -6 -11 -14 0 -8 -6 -21 -13 -28 -6 -7 -23 -37 -36 -65 -14 -29 -28 -53
-33 -53 -4 0 -7 -3 -6 -7 4 -15 -13 -53 -24 -53 -5 0 -8 -7 -4 -15 3 -8 1 -15
-5 -15 -8 0 -31 -42 -33 -62 -1 -4 -7 -13 -14 -19 -6 -7 -12 -21 -12 -31 0
-10 -5 -18 -11 -18 -5 0 -8 -4 -5 -8 3 -5 -4 -14 -14 -22 -10 -8 -17 -17 -14
-21 4 -8 -30 -72 -54 -101 -8 -9 -11 -22 -7 -27 3 -6 2 -11 -3 -11 -5 0 -22
-25 -38 -56 -15 -30 -37 -66 -49 -78 -12 -13 -19 -28 -17 -34 1 -5 -6 -13 -17
-17 -11 -3 -20 -9 -20 -13 3 -18 -2 -33 -9 -28 -5 3 -16 -4 -25 -15 -9 -10
-23 -19 -31 -19 -8 0 -20 -8 -25 -17 -7 -12 -11 -13 -11 -5 0 10 -4 9 -16 -3
-9 -9 -23 -14 -30 -11 -8 3 -14 1 -14 -5 0 -5 -6 -9 -13 -7 -24 5 -54 -20 -52
-44 7 -58 13 -64 68 -63 29 1 58 -3 66 -9 11 -8 13 -8 8 0 -7 12 57 13 69 1 4
-3 14 -3 23 1 9 4 131 7 272 7 283 -1 293 1 291 56 -1 36 -30 63 -49 47 -8 -6
-13 -7 -13 -1 0 11 -3 11 -70 14 -25 0 -51 6 -57 11 -7 6 -13 7 -13 3 0 -4 -7
-1 -17 6 -9 8 -19 13 -22 12 -3 0 -13 3 -21 8 -8 4 -11 9 -6 9 5 0 3 7 -4 15
-14 17 -22 75 -10 75 4 0 6 12 4 26 -1 15 3 28 12 31 8 3 12 9 9 13 -3 5 -1
11 5 15 6 4 8 11 5 16 -4 5 -1 9 5 9 7 0 10 7 6 15 -3 8 -1 15 4 15 8 0 52 84
54 104 1 5 12 16 26 25 20 13 23 13 15 1 -7 -12 -6 -13 6 -3 12 10 18 10 29 0
10 -9 11 -9 6 1 -8 13 19 13 40 -1 6 -3 14 -3 18 0 12 13 46 13 46 0 0 -8 3
-8 8 -2 4 6 25 11 47 11 22 0 43 -5 47 -11 5 -6 8 -6 8 2 0 13 26 13 46 0 6
-3 14 -3 18 0 12 12 66 12 66 0 0 -8 3 -8 8 -2 11 15 64 17 55 2 -5 -9 -3 -9
8 -1 15 12 74 12 85 1 4 -3 12 -3 18 0 18 12 96 10 96 -1 0 -6 4 -5 9 2 6 11
14 8 35 -13 14 -14 24 -30 21 -35 -3 -4 2 -11 11 -14 8 -3 12 -10 9 -16 -3 -5
-2 -10 3 -10 9 0 25 -37 23 -52 -1 -5 3 -8 8 -8 9 0 21 -25 21 -43 -1 -4 6
-15 15 -23 8 -9 13 -19 10 -24 -3 -5 -1 -10 4 -12 5 -1 11 -12 13 -23 1 -11 7
-23 13 -27 5 -4 10 -21 11 -38 1 -35 -34 -70 -72 -70 -12 0 -26 -5 -29 -10 -4
-6 -12 -7 -18 -3 -19 12 -37 12 -37 1 0 -7 -4 -7 -13 0 -7 6 -18 7 -26 3 -7
-5 -23 -7 -35 -6 -21 3 -23 -1 -21 -40 3 -56 11 -68 35 -55 10 6 21 6 24 2 3
-5 128 -8 278 -7 175 0 278 -3 287 -10 11 -7 13 -7 8 1 -8 13 51 13 72 0 9 -6
12 -5 8 1 -8 13 52 11 72 -1 9 -6 12 -5 8 1 -7 11 58 12 69 0 4 -3 14 -3 23 1
9 5 57 7 106 7 50 -1 96 2 103 8 8 6 12 5 12 -4 0 -11 2 -11 10 1 11 17 13 70
4 94 -5 12 -11 13 -24 6 -13 -7 -21 -7 -25 0 -3 5 -17 10 -31 10 -14 0 -22 4
-19 10 3 5 0 7 -8 4 -8 -3 -22 2 -30 11 -9 9 -19 16 -22 15 -20 -1 -25 1 -21
9 3 5 -1 11 -9 15 -8 3 -15 12 -15 21 0 8 -7 15 -16 15 -10 0 -14 6 -11 14 3
8 0 16 -6 19 -7 3 -21 22 -32 43 -10 22 -28 52 -39 68 -13 19 -15 27 -5 21 7
-4 4 2 -8 14 -13 12 -26 33 -29 46 -4 15 -11 22 -18 18 -6 -4 -4 2 4 12 8 10
11 16 5 13 -13 -7 -29 11 -33 37 -2 11 -8 23 -14 26 -5 3 -9 8 -9 10 3 10 -24
69 -31 69 -4 0 -8 7 -8 15 0 8 -4 15 -8 15 -8 0 -32 57 -31 74 1 5 -6 13 -14
18 -9 4 -18 22 -22 38 -4 17 -11 30 -16 30 -6 0 -8 4 -4 9 3 5 -3 17 -12 27
-10 10 -16 18 -14 18 3 1 -7 21 -21 46 -15 25 -39 72 -55 105 -15 33 -32 63
-36 66 -5 3 -9 10 -9 15 -1 18 -23 59 -35 67 -7 4 -13 14 -13 22 0 16 -32 79
-42 83 -5 2 -8 12 -8 22 0 9 -7 23 -15 30 -8 7 -13 16 -10 20 3 5 -1 15 -9 23
-8 8 -12 17 -9 21 4 3 1 6 -5 6 -7 0 -12 9 -12 20 0 11 -4 20 -10 20 -5 0 -10
7 -10 15 0 7 -8 19 -17 24 -13 8 -14 10 -4 11 12 0 12 2 -1 13 -9 6 -18 21
-20 32 -2 11 -11 29 -20 39 -10 11 -18 28 -18 38 0 10 -5 18 -11 18 -5 0 -8 4
-5 9 3 5 -3 20 -14 33 -11 14 -16 28 -13 32 3 3 1 6 -5 6 -7 0 -12 7 -12 15 0
8 -4 15 -10 15 -5 0 -10 7 -10 15 0 8 -11 35 -25 60 -14 25 -22 45 -18 45 4 0
0 5 -10 11 -9 6 -15 14 -12 20 4 5 1 9 -4 9 -6 0 -11 6 -11 14 0 36 -62 53
-100 28z m-148 -772 c7 -16 16 -30 20 -30 5 0 7 -3 6 -7 -3 -15 21 -63 31 -63
6 0 8 -7 5 -15 -4 -8 -1 -15 5 -15 6 0 11 -3 10 -7 -2 -16 14 -53 22 -53 5 0
9 -9 9 -19 0 -11 5 -21 11 -23 5 -2 12 -10 14 -18 8 -39 18 -60 27 -60 5 0 6
-5 3 -10 -3 -6 0 -13 8 -16 7 -2 14 -10 14 -17 1 -22 8 -40 22 -58 8 -10 16
-27 18 -38 3 -19 -4 -20 -251 -20 l-253 -1 2 23 c4 37 5 38 14 32 6 -3 8 4 6
15 -2 11 0 18 5 15 4 -3 16 18 26 45 10 28 22 50 26 50 4 0 8 4 8 10 0 5 13
31 29 59 16 27 27 52 24 55 -3 3 1 8 10 12 9 3 13 12 10 20 -3 8 -1 14 3 14 5
0 15 15 23 33 8 17 17 34 20 37 3 3 14 22 23 43 21 45 32 46 50 7z"/>
</g>
</svg>
